<svg width="226" height="90" viewBox="0 0 226 90" fill="none" xmlns="http://www.w3.org/2000/svg">
<rect x="0.5" y="0.5" width="225" height="89" rx="3.5" stroke="#AFB1B8"/>
<path d="M85.4021 36.8306H85.3994C83.1371 36.8306 81.3031 38.6177 81.3031 40.8223V40.8249C81.3031 43.0295 83.1371 44.8167 85.3994 44.8167H85.4021C87.6644 44.8167 89.4983 43.0295 89.4983 40.8249V40.8223C89.4983 38.6177 87.6644 36.8306 85.4021 36.8306Z" fill="#AFB1B8"/>
<path d="M115.637 35.5545C115.63 32.4924 114.38 29.5575 112.158 27.3921C109.936 25.2266 106.925 24.007 103.783 24V24C100.64 24.0056 97.6269 25.2246 95.4041 27.3902C93.1814 29.5558 91.9298 32.4915 91.9233 35.5545V52.4402C91.9233 52.4402 115.634 49.8667 115.637 35.5571V35.5545Z" fill="#AFB1B8"/>
<path d="M73 57.9823C73.0057 60.1129 73.8766 62.1547 75.4223 63.6615C76.968 65.1683 79.0629 66.0177 81.2492 66.0239C83.4351 66.0177 85.5296 65.1687 87.0752 63.6625C88.6209 62.1562 89.492 60.1151 89.4985 57.9849V46.2356C89.4985 46.2356 73 48.0276 73 57.9823ZM81.2492 60.0874C80.822 60.0874 80.4043 59.964 80.0491 59.7326C79.6938 59.5013 79.417 59.1726 79.2535 58.7879C79.09 58.4032 79.0472 57.98 79.1305 57.5716C79.2139 57.1632 79.4196 56.7881 79.7217 56.4937C80.0239 56.1993 80.4088 55.9988 80.8278 55.9176C81.2468 55.8364 81.6812 55.8781 82.0759 56.0374C82.4706 56.1967 82.808 56.4665 83.0454 56.8127C83.2827 57.1589 83.4094 57.5659 83.4094 57.9823C83.4105 58.2594 83.3554 58.534 83.2473 58.7903C83.1392 59.0466 82.9803 59.2796 82.7796 59.476C82.5789 59.6723 82.3404 59.828 82.0778 59.9343C81.8152 60.0406 81.5336 60.0953 81.2492 60.0953V60.0874Z" fill="#AFB1B8"/>
<path d="M98.0891 58.7812H96.4016V60.5244H95.5227V56.2588H98.3V56.9707H96.4016V58.0723H98.0891V58.7812ZM102.314 58.4883C102.314 58.9082 102.24 59.2764 102.091 59.5928C101.943 59.9092 101.73 60.1533 101.452 60.3252C101.177 60.4971 100.861 60.583 100.503 60.583C100.15 60.583 99.8342 60.498 99.5569 60.3281C99.2795 60.1582 99.0647 59.916 98.9124 59.6016C98.76 59.2852 98.6829 58.9219 98.6809 58.5117V58.3008C98.6809 57.8809 98.7561 57.5117 98.9065 57.1934C99.0588 56.873 99.2727 56.6279 99.5481 56.458C99.8254 56.2861 100.142 56.2002 100.497 56.2002C100.853 56.2002 101.168 56.2861 101.444 56.458C101.721 56.6279 101.935 56.873 102.085 57.1934C102.238 57.5117 102.314 57.8799 102.314 58.2979V58.4883ZM101.423 58.2949C101.423 57.8477 101.343 57.5078 101.183 57.2754C101.023 57.043 100.794 56.9268 100.497 56.9268C100.202 56.9268 99.9749 57.042 99.8147 57.2725C99.6545 57.501 99.5735 57.8369 99.5715 58.2803V58.4883C99.5715 58.9238 99.6516 59.2617 99.8118 59.502C99.9719 59.7422 100.202 59.8623 100.503 59.8623C100.798 59.8623 101.025 59.7471 101.183 59.5166C101.341 59.2842 101.421 58.9463 101.423 58.5029V58.2949ZM105.164 59.4053C105.164 59.2393 105.106 59.1123 104.989 59.0244C104.871 58.9346 104.66 58.8408 104.356 58.7432C104.051 58.6436 103.81 58.5459 103.632 58.4502C103.148 58.1885 102.906 57.8359 102.906 57.3926C102.906 57.1621 102.97 56.957 103.099 56.7773C103.23 56.5957 103.416 56.4541 103.658 56.3525C103.903 56.251 104.176 56.2002 104.479 56.2002C104.783 56.2002 105.055 56.2559 105.293 56.3672C105.531 56.4766 105.716 56.6318 105.847 56.833C105.98 57.0342 106.046 57.2627 106.046 57.5186H105.167C105.167 57.3232 105.106 57.1719 104.983 57.0645C104.86 56.9551 104.687 56.9004 104.464 56.9004C104.249 56.9004 104.082 56.9463 103.963 57.0381C103.844 57.1279 103.784 57.2471 103.784 57.3955C103.784 57.5342 103.854 57.6504 103.992 57.7441C104.133 57.8379 104.339 57.9258 104.611 58.0078C105.111 58.1582 105.475 58.3447 105.703 58.5674C105.932 58.79 106.046 59.0674 106.046 59.3994C106.046 59.7686 105.906 60.0586 105.627 60.2695C105.348 60.4785 104.972 60.583 104.499 60.583C104.171 60.583 103.872 60.5234 103.603 60.4043C103.333 60.2832 103.127 60.1182 102.985 59.9092C102.844 59.7002 102.774 59.458 102.774 59.1826H103.656C103.656 59.6533 103.937 59.8887 104.499 59.8887C104.708 59.8887 104.871 59.8467 104.989 59.7627C105.106 59.6768 105.164 59.5576 105.164 59.4053ZM109.855 56.9707H108.548V60.5244H107.669V56.9707H106.38V56.2588H109.855V56.9707ZM112.925 58.6758H111.238V59.8184H113.218V60.5244H110.359V56.2588H113.212V56.9707H111.238V57.9873H112.925V58.6758ZM115.313 58.9629H114.613V60.5244H113.734V56.2588H115.319C115.823 56.2588 116.211 56.3711 116.485 56.5957C116.758 56.8203 116.895 57.1377 116.895 57.5479C116.895 57.8389 116.831 58.082 116.704 58.2773C116.579 58.4707 116.389 58.625 116.133 58.7402L117.056 60.4834V60.5244H116.113L115.313 58.9629ZM114.613 58.251H115.322C115.542 58.251 115.713 58.1953 115.834 58.084C115.955 57.9707 116.016 57.8154 116.016 57.6182C116.016 57.417 115.958 57.2588 115.843 57.1436C115.73 57.0283 115.555 56.9707 115.319 56.9707H114.613V58.251ZM119.939 59.0215V60.5244H119.06V56.2588H120.724C121.044 56.2588 121.325 56.3174 121.568 56.4346C121.812 56.5518 121.999 56.7188 122.13 56.9355C122.261 57.1504 122.326 57.3955 122.326 57.6709C122.326 58.0889 122.183 58.4189 121.896 58.6611C121.611 58.9014 121.215 59.0215 120.709 59.0215H119.939ZM119.939 58.3096H120.724C120.956 58.3096 121.133 58.2549 121.254 58.1455C121.377 58.0361 121.439 57.8799 121.439 57.6768C121.439 57.4678 121.377 57.2988 121.254 57.1699C121.131 57.041 120.961 56.9746 120.744 56.9707H119.939V58.3096ZM125.499 58.6758H123.812V59.8184H125.792V60.5244H122.933V56.2588H125.786V56.9707H123.812V57.9873H125.499V58.6758ZM129.577 56.9707H128.271V60.5244H127.392V56.9707H126.103V56.2588H129.577V56.9707ZM132.648 58.6758H130.96V59.8184H132.941V60.5244H130.081V56.2588H132.935V56.9707H130.96V57.9873H132.648V58.6758ZM135.035 58.9629H134.335V60.5244H133.456V56.2588H135.041C135.545 56.2588 135.934 56.3711 136.207 56.5957C136.481 56.8203 136.617 57.1377 136.617 57.5479C136.617 57.8389 136.554 58.082 136.427 58.2773C136.302 58.4707 136.112 58.625 135.856 58.7402L136.779 60.4834V60.5244H135.835L135.035 58.9629ZM134.335 58.251H135.044C135.265 58.251 135.436 58.1953 135.557 58.084C135.678 57.9707 135.739 57.8154 135.739 57.6182C135.739 57.417 135.681 57.2588 135.566 57.1436C135.452 57.0283 135.278 56.9707 135.041 56.9707H134.335V58.251ZM139.5 59.4053C139.5 59.2393 139.442 59.1123 139.324 59.0244C139.207 58.9346 138.996 58.8408 138.692 58.7432C138.387 58.6436 138.146 58.5459 137.968 58.4502C137.484 58.1885 137.241 57.8359 137.241 57.3926C137.241 57.1621 137.306 56.957 137.435 56.7773C137.566 56.5957 137.752 56.4541 137.994 56.3525C138.239 56.251 138.512 56.2002 138.815 56.2002C139.119 56.2002 139.391 56.2559 139.629 56.3672C139.867 56.4766 140.052 56.6318 140.183 56.833C140.316 57.0342 140.382 57.2627 140.382 57.5186H139.503C139.503 57.3232 139.442 57.1719 139.319 57.0645C139.196 56.9551 139.023 56.9004 138.8 56.9004C138.585 56.9004 138.418 56.9463 138.299 57.0381C138.18 57.1279 138.12 57.2471 138.12 57.3955C138.12 57.5342 138.19 57.6504 138.328 57.7441C138.469 57.8379 138.675 57.9258 138.947 58.0078C139.447 58.1582 139.811 58.3447 140.039 58.5674C140.268 58.79 140.382 59.0674 140.382 59.3994C140.382 59.7686 140.242 60.0586 139.963 60.2695C139.684 60.4785 139.308 60.583 138.835 60.583C138.507 60.583 138.208 60.5234 137.939 60.4043C137.669 60.2832 137.463 60.1182 137.321 59.9092C137.18 59.7002 137.11 59.458 137.11 59.1826H137.991C137.991 59.6533 138.273 59.8887 138.835 59.8887C139.044 59.8887 139.207 59.8467 139.324 59.7627C139.442 59.6768 139.5 59.5576 139.5 59.4053Z" fill="#AFB1B8"/>
</svg>
