<svg width="226" height="90" viewBox="0 0 226 90" fill="none" xmlns="http://www.w3.org/2000/svg">
<rect x="0.5" y="0.5" width="225" height="89" rx="3.5" stroke="#AFB1B8"/>
<path d="M109.977 21.9345H110.114C110.367 21.9345 110.64 21.9599 110.91 21.9828C112.103 22.067 113.287 22.2455 114.452 22.5168V19.6535C113.253 19.3526 112.03 19.1578 110.797 19.0712C110.329 19.0356 109.83 19.0127 109.319 19H108.892C106.417 19.0093 103.953 19.3271 101.556 19.946C98.8253 20.6269 96.2047 21.6928 93.7716 23.1119V51.5086C96.1143 50.2357 98.6072 49.2643 101.191 48.6173C103.232 48.0967 105.318 47.7765 107.419 47.6612H107.503C107.855 47.6434 108.206 47.6332 108.568 47.6306V44.7216C105.837 44.7567 103.119 45.1178 100.473 45.7972C99.4938 46.0515 98.5477 46.3261 97.6598 46.6313L96.6479 46.9746V24.8334L97.0805 24.6249C100.382 23.0595 103.952 22.1486 107.597 21.9421C107.627 21.9399 107.657 21.9399 107.688 21.9421C108.09 21.9218 108.495 21.9116 108.892 21.9116H109.327H109.347C109.557 21.9167 109.767 21.9218 109.977 21.9345Z" fill="#AFB1B8"/>
<path d="M117.111 24.9326C116.445 24.9326 115.788 24.9097 115.153 24.8614C114.394 24.8054 113.615 24.7139 112.876 24.5893C112.426 24.513 111.983 24.4215 111.553 24.3223V52.3935C113.374 52.8443 115.243 53.0647 117.118 53.0496C119.593 53.0395 122.057 52.7227 124.455 52.1061C127.185 51.4243 129.807 50.3585 132.241 48.9402V21.0496C129.899 22.3218 127.407 23.294 124.824 23.9434C122.303 24.5908 119.713 24.9231 117.111 24.9326ZM128.335 25.4183L129.347 25.0775V47.2263L128.914 47.4348C127.255 48.2243 125.522 48.8469 123.741 49.2937C121.578 49.8533 119.354 50.1412 117.121 50.1506C116.453 50.1506 115.79 50.1227 115.148 50.0667L114.455 50.0057V47.3178V27.2288L115.262 27.2822C115.848 27.3204 116.456 27.3382 117.116 27.3382C119.951 27.3281 122.775 26.966 125.522 26.26C126.466 26.0108 127.404 25.7311 128.335 25.4183Z" fill="#AFB1B8"/>
<path d="M95.7371 61.2124C95.5917 61.0615 95.4163 60.943 95.2224 60.8646C95.0284 60.7862 94.8203 60.7496 94.6114 60.7572C94.3888 60.7542 94.1678 60.7957 93.9613 60.8793C93.7719 60.9547 93.5998 61.068 93.4553 61.2124C93.3125 61.3572 93.2013 61.5304 93.129 61.721C93.0497 61.9207 93.0101 62.1341 93.0126 62.3491V66.1431C93.0036 66.4104 93.0546 66.6764 93.1619 66.9212C93.2514 67.1156 93.3807 67.2889 93.5413 67.4298C93.693 67.5575 93.871 67.6495 94.0625 67.6994C94.2469 67.7512 94.4376 67.7777 94.6291 67.7782C94.8404 67.7803 95.0495 67.7351 95.2413 67.646C95.4309 67.563 95.6028 67.4438 95.7473 67.295C95.8881 67.1476 96.0005 66.9752 96.0786 66.7864C96.1597 66.5951 96.201 66.3892 96.2001 66.1812V65.7566H95.2084V66.0948C95.2114 66.2103 95.1916 66.3252 95.1502 66.433C95.1179 66.5137 95.0688 66.5866 95.006 66.6466C94.9446 66.6962 94.8742 66.7334 94.7986 66.7559C94.7316 66.7782 94.6617 66.7902 94.5912 66.7915C94.5026 66.8018 94.413 66.7885 94.3312 66.7527C94.2495 66.717 94.1786 66.6602 94.1257 66.5881C94.0322 66.4356 93.9864 66.2585 93.9942 66.0795V62.5423C93.988 62.3462 94.0297 62.1515 94.1156 61.9753C94.1671 61.8952 94.2399 61.8313 94.3258 61.7908C94.4117 61.7503 94.5071 61.7349 94.6013 61.7464C94.6868 61.7434 94.7717 61.7612 94.8488 61.7984C94.9259 61.8356 94.9929 61.8911 95.044 61.96C95.155 62.1057 95.213 62.2852 95.2084 62.4686V62.7966H96.19V62.4101C96.1919 62.1831 96.1507 61.9578 96.0685 61.7464C95.9953 61.5476 95.8825 61.3659 95.7371 61.2124Z" fill="#AFB1B8"/>
<path d="M101.629 61.1691C101.313 60.9021 100.914 60.7546 100.501 60.7521C100.299 60.753 100.098 60.7891 99.9087 60.8589C99.7161 60.9279 99.5384 61.0332 99.3851 61.1691C99.2208 61.3168 99.0897 61.498 99.0005 61.7006C98.9006 61.9324 98.8515 62.183 98.8563 62.4355V66.0744C98.8495 66.3304 98.8987 66.5848 99.0005 66.8195C99.0903 67.0152 99.2215 67.1888 99.3851 67.3281C99.5367 67.4688 99.7147 67.5778 99.9087 67.6485C100.098 67.7183 100.299 67.7544 100.501 67.7553C100.703 67.7549 100.903 67.7187 101.093 67.6485C101.29 67.5768 101.472 67.468 101.629 67.3281C101.787 67.1862 101.915 67.013 102.003 66.8195C102.105 66.5848 102.154 66.3304 102.148 66.0744V62.4355C102.152 62.183 102.103 61.9324 102.003 61.7006C101.915 61.5001 101.788 61.3194 101.629 61.1691ZM101.166 66.0744C101.174 66.1714 101.161 66.269 101.127 66.3601C101.093 66.4512 101.039 66.5335 100.969 66.6008C100.838 66.7107 100.673 66.7708 100.502 66.7708C100.331 66.7708 100.166 66.7107 100.035 66.6008C99.9652 66.5335 99.9112 66.4512 99.8771 66.3601C99.8429 66.269 99.8295 66.1714 99.8379 66.0744V62.4355C99.8295 62.3385 99.8429 62.2409 99.8771 62.1498C99.9112 62.0587 99.9652 61.9765 100.035 61.9091C100.166 61.7993 100.331 61.7391 100.502 61.7391C100.673 61.7391 100.838 61.7993 100.969 61.9091C101.039 61.9765 101.093 62.0587 101.127 62.1498C101.161 62.2409 101.174 62.3385 101.166 62.4355V66.0744Z" fill="#AFB1B8"/>
<path d="M109.367 67.6994V60.8106H108.414L107.161 64.4571H107.144L105.881 60.8106H104.938V67.6994H105.922V63.5086H105.94L106.903 66.4711H107.394L108.366 63.5086H108.383V67.6994H109.367Z" fill="#AFB1B8"/>
<path d="M114.958 61.2937C114.806 61.1237 114.615 60.9944 114.401 60.9173C114.171 60.8424 113.93 60.8063 113.688 60.8105H112.226V67.6993H113.207V65.0089H113.713C114.02 65.0228 114.324 64.9581 114.599 64.8207C114.822 64.6968 115.008 64.515 115.138 64.2943C115.251 64.1111 115.328 63.9072 115.363 63.6942C115.401 63.435 115.419 63.1731 115.416 62.911C115.425 62.5802 115.393 62.2495 115.32 61.9269C115.254 61.6885 115.13 61.4707 114.958 61.2937ZM114.452 63.3941C114.448 63.5189 114.417 63.6412 114.361 63.7527C114.305 63.8586 114.216 63.9434 114.108 63.9943C113.963 64.0593 113.804 64.0889 113.645 64.0807H113.197V61.7387H113.703C113.856 61.7312 114.007 61.7609 114.146 61.8252C114.247 61.8834 114.328 61.9724 114.376 62.0795C114.43 62.2005 114.459 62.331 114.462 62.4634C114.462 62.6084 114.462 62.761 114.462 62.9212C114.462 63.0814 114.472 63.2467 114.462 63.3941H114.452Z" fill="#AFB1B8"/>
<path d="M119.608 60.8106H118.803L117.285 67.6994H118.267L118.555 66.2194H119.894L120.182 67.6994H121.163L119.608 60.8106ZM118.702 65.281L119.185 62.7839H119.203L119.684 65.281H118.702Z" fill="#AFB1B8"/>
<path d="M125.95 64.9606H125.932L124.449 60.8106H123.506V67.6994H124.487V63.557H124.508L126.008 67.6994H126.931V60.8106H125.95V64.9606Z" fill="#AFB1B8"/>
<path d="M131.948 60.8106L131.158 63.5493H131.138L130.349 60.8106H129.309L130.657 64.7877V67.6994H131.639V64.7877L132.987 60.8106H131.948Z" fill="#AFB1B8"/>
<path d="M93 69.6446H93.4731V70.972H93.7943V69.6446H94.2649V69.3725H93V69.6446Z" fill="#AFB1B8"/>
<path d="M96.9767 69.3725L96.3569 70.972H96.6984L96.83 70.6083H97.4675L97.6041 70.972H97.9532L97.3182 69.3725H96.9767ZM96.9261 70.3388L97.1437 69.7463L97.3612 70.3388H96.9261Z" fill="#AFB1B8"/>
<path d="M100.908 70.3822H101.277V70.5881C101.169 70.6746 101.036 70.7221 100.898 70.7229C100.833 70.7265 100.769 70.7146 100.71 70.688C100.651 70.6615 100.599 70.6211 100.559 70.5703C100.474 70.4486 100.432 70.3018 100.44 70.1533C100.44 69.7973 100.594 69.6193 100.9 69.6193C100.981 69.6113 101.062 69.6325 101.128 69.6791C101.194 69.7258 101.242 69.7948 101.262 69.8736L101.578 69.8126C101.51 69.4998 101.285 69.3421 100.9 69.3421C100.695 69.3366 100.495 69.4103 100.341 69.5481C100.261 69.6277 100.198 69.7239 100.159 69.8302C100.119 69.9365 100.103 70.0502 100.111 70.1635C100.102 70.3823 100.175 70.5966 100.316 70.7636C100.394 70.8444 100.489 70.9071 100.594 70.9475C100.699 70.9879 100.811 71.005 100.923 70.9975C101.173 71.0045 101.417 70.9133 101.601 70.7433V70.1126H100.908V70.3822Z" fill="#AFB1B8"/>
<path d="M104.923 69.3725H104.599V70.972H105.719V70.6999H104.923V69.3725Z" fill="#AFB1B8"/>
<path d="M108.317 69.3725H107.994V70.972H108.317V69.3725Z" fill="#AFB1B8"/>
<path d="M111.636 70.4405L110.981 69.3725H110.668V70.972H110.969V69.9268L111.611 70.972H111.932V69.3725H111.636V70.4405Z" fill="#AFB1B8"/>
<path d="M114.637 70.2676H115.434V69.9955H114.637V69.6446H115.494V69.3725H114.313V70.972H115.527V70.6999H114.637V70.2676Z" fill="#AFB1B8"/>
<path d="M121.912 70.0031H121.282V69.3725H120.961V70.972H121.282V70.2727H121.912V70.972H122.233V69.3725H121.912V70.0031Z" fill="#AFB1B8"/>
<path d="M124.93 70.2676H125.73V69.9955H124.93V69.6446H125.79V69.3725H124.609V70.972H125.821V70.6999H124.93V70.2676Z" fill="#AFB1B8"/>
<path d="M129.023 70.2677C129.302 70.2244 129.443 70.0769 129.443 69.8227C129.451 69.7546 129.441 69.6857 129.413 69.623C129.386 69.5604 129.342 69.5064 129.286 69.4667C129.141 69.3939 128.98 69.3614 128.818 69.3726H128.14V70.9721H128.462V70.3033H128.525C128.593 70.299 128.662 70.3112 128.725 70.3389C128.772 70.3678 128.811 70.408 128.839 70.4558L129.188 70.9644H129.572L129.377 70.6516C129.291 70.4972 129.17 70.3656 129.023 70.2677ZM128.699 70.0464H128.462V69.6447H128.715C128.825 69.6357 128.936 69.6487 129.041 69.6828C129.064 69.7035 129.083 69.7291 129.095 69.7579C129.107 69.7868 129.113 69.818 129.111 69.8492C129.11 69.8805 129.101 69.911 129.087 69.9386C129.072 69.9661 129.051 69.9899 129.026 70.0083C128.92 70.0407 128.81 70.0536 128.699 70.0464Z" fill="#AFB1B8"/>
<path d="M132.109 70.2676H132.906V69.9955H132.109V69.6446H132.97V69.3725H131.786V70.972H133V70.6999H132.109V70.2676Z" fill="#AFB1B8"/>
</svg>
