<svg width="226" height="90" viewBox="0 0 226 90" fill="none" xmlns="http://www.w3.org/2000/svg">
<rect x="0.5" y="0.5" width="225" height="89" rx="3.5" stroke="#AFB1B8"/>
<path d="M113.74 43.3533C113.322 42.7432 113.122 42.022 113.17 41.2962V38.3135C113.17 37.3992 113.359 36.7044 113.737 36.2291C114.115 35.7537 114.765 35.517 115.686 35.5191C116.551 35.5191 117.165 35.7213 117.529 36.1259C117.925 36.6421 118.118 37.2733 118.074 37.91V38.6109H116.526V37.9009C116.531 37.6685 116.516 37.4361 116.481 37.2061C116.458 37.0488 116.38 36.9033 116.26 36.7934C116.101 36.675 115.9 36.6175 115.699 36.6326C115.487 36.6176 115.276 36.6782 115.109 36.8025C114.974 36.9243 114.884 37.0838 114.853 37.2576C114.808 37.5011 114.788 37.7479 114.792 37.995V41.6147C114.767 41.964 114.836 42.3134 114.99 42.6312C115.067 42.7387 115.174 42.824 115.299 42.8775C115.424 42.9311 115.563 42.9508 115.699 42.9346C115.897 42.9501 116.094 42.8912 116.247 42.7708C116.373 42.6523 116.454 42.4976 116.477 42.3308C116.514 42.0907 116.53 41.8482 116.526 41.6056V40.8714H118.074V41.5419C118.117 42.2056 117.929 42.8644 117.538 43.4171C117.183 43.86 116.577 44.0815 115.686 44.0815C114.795 44.0815 114.122 43.8449 113.74 43.3533Z" fill="#AFB1B8"/>
<path d="M120.186 43.3837C119.795 42.9194 119.599 42.2428 119.599 41.3477V38.2104C119.599 37.3244 119.795 36.6538 120.186 36.1987C120.577 35.7436 121.23 35.517 122.147 35.5191C123.057 35.5191 123.708 35.7456 124.099 36.1987C124.49 36.6538 124.688 37.3244 124.688 38.2104V41.3477C124.688 42.2337 124.49 42.9134 124.092 43.3806C123.695 43.8479 123.048 44.0815 122.147 44.0815C121.246 44.0815 120.58 43.8449 120.186 43.3837ZM122.868 42.6312C123.008 42.3404 123.072 42.0219 123.054 41.7027V37.8615C123.072 37.5485 123.009 37.2361 122.871 36.9512C122.793 36.8414 122.683 36.7547 122.555 36.7011C122.427 36.6474 122.286 36.629 122.147 36.6478C122.008 36.6294 121.866 36.6481 121.738 36.7017C121.609 36.7553 121.499 36.8417 121.419 36.9512C121.279 37.2353 121.215 37.5481 121.234 37.8615V41.7209C121.214 42.0402 121.278 42.3591 121.419 42.6494C121.51 42.7473 121.621 42.8257 121.746 42.8795C121.871 42.9332 122.007 42.961 122.144 42.961C122.281 42.961 122.417 42.9332 122.542 42.8795C122.667 42.8257 122.778 42.7473 122.868 42.6494V42.6312Z" fill="#AFB1B8"/>
<path d="M126.551 35.6106H128.217L129.47 41.3992L130.752 35.6106H132.374L132.537 43.9658H131.339L131.211 38.159L129.973 43.9658H129.012L127.73 38.1378L127.611 43.9658H126.4L126.551 35.6106Z" fill="#AFB1B8"/>
<path d="M134.406 35.6106H137.002C138.497 35.6106 139.245 36.4014 139.245 37.9831C139.245 39.498 138.458 40.2544 136.883 40.2524H135.999V43.9658H134.396L134.406 35.6106ZM136.624 39.1814C136.782 39.2005 136.943 39.1867 137.095 39.1411C137.247 39.0956 137.387 39.0193 137.505 38.9175C137.689 38.6353 137.77 38.3039 137.736 37.974C137.744 37.7191 137.718 37.4642 137.659 37.2155C137.636 37.1324 137.596 37.0545 137.541 36.9863C137.486 36.918 137.417 36.8608 137.338 36.8181C137.116 36.7171 136.87 36.6711 136.624 36.6846H136.002V39.1814H136.624Z" fill="#AFB1B8"/>
<path d="M141.556 35.6106H143.277L145.043 43.9658H143.549L143.2 42.0393H141.665L141.306 43.9658H139.79L141.556 35.6106ZM143.027 41.0715L142.428 37.5644L141.828 41.0715H143.027Z" fill="#AFB1B8"/>
<path d="M146.469 35.6106H147.591L149.738 40.3768V35.6106H151.068V43.9658H150.001L147.841 38.9903V43.9658H146.466L146.469 35.6106Z" fill="#AFB1B8"/>
<path d="M154.184 40.7801L152.398 35.6223H153.902L154.991 38.9354L156.014 35.6223H157.485L155.722 40.7801V43.9658H154.184V40.7801Z" fill="#AFB1B8"/>
<path d="M116.215 47.6189V48.0558H114.907V51.4509H114.359V48.0558H113.045V47.6189H116.215Z" fill="#AFB1B8"/>
<path d="M120.314 51.4512H119.891C119.848 51.4537 119.805 51.4407 119.772 51.4148C119.74 51.3925 119.716 51.362 119.702 51.3268L119.324 50.4166H117.509L117.131 51.3268C117.121 51.3649 117.101 51.4001 117.074 51.43C117.04 51.4554 116.998 51.4683 116.955 51.4664H116.532L118.134 47.6345H118.692L120.314 51.4512ZM117.66 50.0283H119.173L118.532 48.4688C118.485 48.3509 118.445 48.2303 118.413 48.1078C118.391 48.1806 118.372 48.2504 118.352 48.3111L118.295 48.4719L117.66 50.0283Z" fill="#AFB1B8"/>
<path d="M123.077 51.0748C123.177 51.0798 123.278 51.0798 123.378 51.0748C123.465 51.0664 123.55 51.0512 123.634 51.0293C123.713 51.0111 123.79 50.9878 123.865 50.9595C123.936 50.9322 124.006 50.8988 124.08 50.8655V50.0037H123.439C123.423 50.0046 123.407 50.0023 123.392 49.9971C123.377 49.9919 123.364 49.9838 123.352 49.9734C123.342 49.9648 123.333 49.954 123.328 49.9419C123.322 49.9299 123.32 49.9167 123.32 49.9036V49.6093H124.564V51.0779C124.462 51.1466 124.355 51.2075 124.243 51.2599C124.129 51.3133 124.01 51.357 123.887 51.3904C123.756 51.4269 123.622 51.4533 123.487 51.4693C123.331 51.4856 123.175 51.4937 123.019 51.4936C122.743 51.4958 122.468 51.4473 122.211 51.351C121.971 51.2596 121.753 51.1234 121.57 50.9504C121.392 50.7757 121.251 50.5695 121.157 50.3436C121.056 50.0896 121.006 49.8199 121.009 49.5486C121.006 49.2755 121.055 49.0041 121.154 48.7475C121.246 48.5204 121.387 48.3138 121.567 48.1406C121.75 47.9682 121.968 47.833 122.208 47.7431C122.483 47.6454 122.774 47.597 123.067 47.6005C123.216 47.6003 123.365 47.6115 123.513 47.6339C123.643 47.654 123.771 47.6865 123.894 47.731C124.006 47.7709 124.113 47.8217 124.214 47.8827C124.313 47.9426 124.406 48.0095 124.493 48.083L124.339 48.3197C124.327 48.3413 124.309 48.3594 124.287 48.3722C124.265 48.3851 124.24 48.392 124.214 48.3925C124.179 48.3914 124.144 48.3809 124.115 48.3621C124.067 48.3379 124.016 48.3075 123.958 48.2711C123.89 48.2307 123.818 48.1961 123.743 48.1679C123.648 48.1317 123.549 48.1032 123.448 48.083C123.314 48.0596 123.178 48.0484 123.041 48.0496C122.83 48.0474 122.62 48.0834 122.423 48.1558C122.244 48.2235 122.084 48.3271 121.952 48.4592C121.819 48.597 121.717 48.7592 121.654 48.9356C121.51 49.3507 121.51 49.7981 121.654 50.2131C121.724 50.3933 121.833 50.5576 121.974 50.6955C122.106 50.827 122.265 50.9304 122.442 50.999C122.646 51.0652 122.862 51.091 123.077 51.0748Z" fill="#AFB1B8"/>
<path d="M128.185 51.014H129.935V51.4509H127.65V47.6189H128.198L128.185 51.014Z" fill="#AFB1B8"/>
<path d="M131.756 51.4509H131.208V47.6189H131.756V51.4509Z" fill="#AFB1B8"/>
<path d="M133.794 47.6371C133.826 47.6547 133.855 47.6785 133.877 47.7069L136.22 50.5955C136.217 50.5501 136.217 50.5045 136.22 50.459C136.22 50.4165 136.22 50.374 136.22 50.3346V47.6038H136.698V51.4512H136.422C136.381 51.4543 136.34 51.447 136.303 51.43C136.27 51.4109 136.241 51.3862 136.217 51.3571L133.877 48.4716C133.877 48.5171 133.877 48.5595 133.877 48.602C133.877 48.6445 133.877 48.684 133.877 48.7204V51.4512H133.419V47.6189H133.704C133.735 47.619 133.766 47.6252 133.794 47.6371Z" fill="#AFB1B8"/>
<path d="M140.732 47.6189V48.0406H138.79V49.3059H140.364V49.7124H138.79V51.0202H140.732V51.4419H138.226V47.6189H140.732Z" fill="#AFB1B8"/>
<path d="M83.3035 23.9539L107.638 30.4953V53.4173L83.3035 46.879V23.9539ZM81.7427 22V47.9925L109.196 55.3743V29.3848L81.7427 22Z" fill="#AFB1B8"/>
<path d="M96.4565 67.4402L69 60.0522V34.0625L96.4565 41.4474V67.4402Z" fill="#AFB1B8"/>
<path d="M82.1978 23.6596L106.215 30.1189L96.0014 39.7912L71.9806 33.3288L82.1978 23.6596ZM81.7427 22L69 34.0631L96.4565 41.4478L109.196 29.3847L81.7427 22Z" fill="#AFB1B8"/>
<path d="M98.0015 65.978L109.196 55.3774L98.0015 52.3647V65.978Z" fill="#AFB1B8"/>
</svg>
