<svg width="226" height="90" viewBox="0 0 226 90" fill="none" xmlns="http://www.w3.org/2000/svg">
<rect x="0.5" y="0.5" width="225" height="89" rx="3.5" stroke="#AFB1B8"/>
<path d="M88.4876 61.2777C88.7175 61.5634 88.84 61.9212 88.8336 62.2884C88.8453 62.5279 88.8032 62.767 88.7104 62.988C88.6176 63.209 88.4765 63.4062 88.2975 63.565C87.851 63.9036 87.2977 64.0692 86.7393 64.0312H84V57.6262H86.6832C87.2129 57.5909 87.7383 57.7413 88.1698 58.0518C88.3431 58.1974 88.4803 58.3814 88.5706 58.5894C88.6609 58.7974 88.7019 59.0236 88.6902 59.2502C88.706 59.6035 88.5954 59.9508 88.3786 60.2295C88.1704 60.484 87.8826 60.6604 87.5621 60.7301C87.9255 60.7967 88.2535 60.9908 88.4876 61.2777ZM85.2746 60.3109H86.4215C86.6821 60.3302 86.941 60.2547 87.1507 60.0981C87.2368 60.0197 87.3038 59.9226 87.3465 59.814C87.3892 59.7055 87.4064 59.5886 87.3969 59.4723C87.405 59.3564 87.3874 59.2402 87.3453 59.132C87.3033 59.0238 87.2379 58.9263 87.1538 58.8465C86.9378 58.6855 86.6709 58.6088 86.4028 58.6306H85.2746V60.3109ZM87.2629 62.7671C87.3549 62.6869 87.4273 62.5864 87.4743 62.4735C87.5213 62.3607 87.5418 62.2384 87.534 62.1163C87.541 61.9927 87.5197 61.8692 87.4716 61.7553C87.4235 61.6414 87.35 61.54 87.2567 61.4592C87.0323 61.2922 86.7563 61.2102 86.4776 61.2277H85.2746V62.9892H86.4931C86.7674 63.0051 87.0389 62.9268 87.2629 62.7671Z" fill="#AFB1B8"/>
<path d="M93.9726 64.0312L92.4798 61.5281H91.9189V64.0312H90.6349V57.6263H93.0657C93.6784 57.5833 94.2842 57.7782 94.7579 58.1707C95.0977 58.5183 95.3026 58.9764 95.3358 59.4623C95.3689 59.9482 95.2281 60.4301 94.9387 60.8209C94.6388 61.1659 94.2291 61.3959 93.7794 61.4717L95.3687 64.0312H93.9726ZM91.9189 60.6551H92.9691C93.6983 60.6551 94.0629 60.3318 94.0629 59.6851C94.0704 59.5531 94.0504 59.4209 94.0043 59.297C93.9581 59.1731 93.8868 59.0602 93.7949 58.9655C93.5645 58.773 93.2677 58.6797 92.9691 58.7058H91.9064L91.9189 60.6551Z" fill="#AFB1B8"/>
<path d="M100.991 62.7421H98.4321L97.9802 64.0312H96.6339L98.9837 57.6982H100.439L102.779 64.0312H101.433L100.991 62.7421ZM100.648 61.7721L99.7129 59.0687L98.778 61.7721H100.648Z" fill="#AFB1B8"/>
<path d="M109.776 64.0312H108.501L105.644 59.6757V64.0312H104.372V57.6262H105.644L108.501 62.0068V57.6262H109.776V64.0312Z" fill="#AFB1B8"/>
<path d="M117.05 62.4981C116.786 62.9817 116.384 63.375 115.897 63.6276C115.342 63.909 114.726 64.0477 114.105 64.0313H111.836V57.6263H114.105C114.725 57.61 115.34 57.7453 115.897 58.0206C116.384 58.2674 116.786 58.6569 117.05 59.1376C117.312 59.6585 117.449 60.2341 117.449 60.8178C117.449 61.4016 117.312 61.9772 117.05 62.4981ZM115.591 62.3448C115.955 61.9193 116.155 61.377 116.155 60.8163C116.155 60.2555 115.955 59.7133 115.591 59.2878C115.151 58.9024 114.578 58.7067 113.995 58.7433H113.11V62.8892H113.995C114.578 62.9258 115.151 62.7302 115.591 62.3448Z" fill="#AFB1B8"/>
<path d="M101.788 22C101.788 22 118.24 28.236 117.891 37.2599V52.5229C117.891 52.5229 101.452 46.2838 101.795 37.2599L101.788 22Z" fill="#AFB1B8"/>
<path d="M132.548 48.9497C135.655 46.8029 139.249 45.4731 143 45.0823V40.3044C138.677 41.9771 135.01 45.0101 132.548 48.9497Z" fill="#AFB1B8"/>
<path d="M130.681 50.389C133.224 45.2477 137.633 41.2804 143 39.3031V25.5357C143 25.5357 119.571 34.4188 120.066 47.2694V69C120.066 69 121.11 68.6026 122.753 67.8579C122.753 67.1633 122.753 66.4624 122.827 65.7584C123.312 59.7925 126.137 54.2642 130.681 50.389Z" fill="#AFB1B8"/>
<path d="M128.453 58.4616C128.576 56.9546 128.85 55.4638 129.272 54.0123C126.443 57.3589 124.73 61.5116 124.373 65.8866C124.339 66.2997 124.32 66.7127 124.311 67.1382C125.642 66.4968 127.19 65.6958 128.817 64.754C128.402 62.6841 128.279 60.5659 128.453 58.4616Z" fill="#AFB1B8"/>
<path d="M129.384 58.5399C129.228 60.4437 129.326 62.3598 129.674 64.2377C136.075 60.3922 143.268 54.4504 142.991 47.2694V46.6436C138.417 47.1574 134.138 49.1647 130.812 52.3571C130.033 54.3354 129.552 56.4192 129.384 58.5399Z" fill="#AFB1B8"/>
</svg>
