<svg width="226" height="90" viewBox="0 0 226 90" fill="none" xmlns="http://www.w3.org/2000/svg">
<rect x="0.5" y="0.5" width="225" height="89" rx="3.5" stroke="#AFB1B8"/>
<path d="M99.3454 65.7946C99.3604 65.795 99.3752 65.7982 99.3889 65.8041C99.4026 65.81 99.4149 65.8184 99.4251 65.8289L99.6309 66.0446C99.4712 66.2191 99.2738 66.3588 99.0522 66.4539C98.7927 66.5577 98.513 66.6078 98.2317 66.6009C97.9673 66.6061 97.7046 66.5594 97.46 66.4637C97.2394 66.3758 97.0412 66.2437 96.8787 66.0764C96.713 65.9029 96.5853 65.6996 96.5032 65.4784C96.4133 65.2318 96.3689 64.9723 96.372 64.7113C96.3684 64.4486 96.4164 64.1875 96.5135 63.9417C96.6033 63.7191 96.7389 63.5158 96.9122 63.3436C97.0878 63.1749 97.2979 63.0423 97.5295 62.9539C97.7828 62.8604 98.0526 62.8138 98.3243 62.8167C98.5766 62.8108 98.8277 62.8534 99.0625 62.9417C99.2662 63.0259 99.4532 63.1428 99.6155 63.2873L99.4432 63.5177C99.4312 63.5339 99.4164 63.548 99.3994 63.5593C99.3791 63.5726 99.3545 63.5787 99.33 63.5765C99.3033 63.5747 99.2775 63.5663 99.2554 63.552L99.1628 63.4907L99.0342 63.4123C98.9787 63.3832 98.9211 63.3578 98.8619 63.3363C98.7856 63.3103 98.7073 63.2898 98.6278 63.275C98.5268 63.2573 98.4243 63.2491 98.3217 63.2505C98.1261 63.2482 97.9319 63.2832 97.7507 63.3534C97.5817 63.4185 97.4291 63.5171 97.3031 63.6427C97.1749 63.7762 97.076 63.9329 97.0125 64.1034C96.94 64.2985 96.9043 64.5043 96.907 64.7113C96.9039 64.9214 96.9396 65.1305 97.0125 65.3289C97.0752 65.498 97.1723 65.6537 97.298 65.7872C97.4158 65.9117 97.5618 66.0089 97.725 66.0715C97.8929 66.1379 98.0731 66.1712 98.2548 66.1696C98.3598 66.1711 98.4648 66.1646 98.5686 66.15C98.7382 66.1302 98.9009 66.0741 99.0445 65.9858C99.1165 65.9405 99.1844 65.8897 99.2477 65.8338C99.2741 65.8098 99.3089 65.7958 99.3454 65.7946Z" fill="#AFB1B8"/>
<path d="M105.287 64.7108C105.29 64.9709 105.243 65.2292 105.148 65.473C105.064 65.6941 104.932 65.8958 104.761 66.0648C104.589 66.2338 104.382 66.3662 104.153 66.4533C103.649 66.6363 103.093 66.6363 102.589 66.4533C102.361 66.3648 102.155 66.2321 101.985 66.0636C101.813 65.8916 101.68 65.6882 101.594 65.4657C101.408 64.972 101.408 64.4325 101.594 63.9388C101.681 63.7162 101.814 63.5122 101.985 63.3384C102.157 63.1752 102.363 63.0476 102.589 62.9635C103.092 62.7772 103.65 62.7772 104.153 62.9635C104.381 63.0519 104.588 63.1846 104.76 63.3531C104.929 63.5235 105.061 63.7243 105.148 63.9437C105.244 64.1892 105.291 64.4492 105.287 64.7108ZM104.747 64.7108C104.751 64.5028 104.718 64.2956 104.649 64.0981C104.592 63.929 104.498 63.7729 104.374 63.6399C104.253 63.5139 104.105 63.4152 103.939 63.3507C103.573 63.2167 103.168 63.2167 102.802 63.3507C102.637 63.4152 102.488 63.5139 102.368 63.6399C102.242 63.7722 102.147 63.9284 102.09 64.0981C101.959 64.4971 101.959 64.9246 102.09 65.3235C102.148 65.4931 102.243 65.6492 102.368 65.7818C102.489 65.907 102.637 66.0049 102.802 66.0685C103.169 66.1991 103.573 66.1991 103.939 66.0685C104.105 66.0049 104.253 65.907 104.374 65.7818C104.497 65.6484 104.591 65.4925 104.649 65.3235C104.718 65.1261 104.751 64.9189 104.747 64.7108Z" fill="#AFB1B8"/>
<path d="M109.341 65.3532L109.395 65.4904C109.415 65.4414 109.433 65.3973 109.454 65.3532C109.474 65.3071 109.496 65.2621 109.521 65.2184L110.835 62.942C110.861 62.9028 110.884 62.8783 110.91 62.8709C110.945 62.8608 110.981 62.8566 111.018 62.8587H111.406V66.5613H110.946V63.8388C110.946 63.8045 110.946 63.7653 110.946 63.7237C110.943 63.6812 110.943 63.6387 110.946 63.5962L109.624 65.9046C109.607 65.9391 109.58 65.9684 109.546 65.9888C109.513 66.0092 109.473 66.02 109.433 66.0197H109.359C109.319 66.0203 109.279 66.0097 109.246 65.9892C109.212 65.9687 109.185 65.9393 109.168 65.9046L107.808 63.5815C107.808 63.6256 107.808 63.6698 107.808 63.7139C107.808 63.758 107.808 63.7972 107.808 63.8315V66.5539H107.363V62.8587H107.751C107.788 62.8566 107.824 62.8608 107.859 62.8709C107.891 62.886 107.917 62.9111 107.931 62.942L109.274 65.2209C109.3 65.263 109.323 65.3073 109.341 65.3532Z" fill="#AFB1B8"/>
<path d="M114.287 65.1692V66.5562H113.773V62.8585H114.92C115.136 62.8546 115.352 62.8818 115.56 62.9394C115.727 62.9843 115.881 63.0629 116.013 63.1697C116.127 63.2699 116.215 63.394 116.27 63.5324C116.331 63.6832 116.361 63.8438 116.358 64.0053C116.36 64.1675 116.328 64.3284 116.263 64.4782C116.201 64.6201 116.106 64.7466 115.985 64.8482C115.853 64.9595 115.698 65.043 115.529 65.0933C115.329 65.1542 115.12 65.1832 114.91 65.179L114.287 65.1692ZM114.287 64.7723H114.91C115.045 64.7739 115.179 64.7549 115.308 64.7159C115.415 64.6818 115.513 64.6277 115.596 64.5566C115.674 64.4888 115.733 64.405 115.771 64.3116C115.813 64.2128 115.834 64.107 115.833 64.0004C115.839 63.8976 115.821 63.7948 115.781 63.6992C115.741 63.6035 115.68 63.5174 115.602 63.4466C115.405 63.3004 115.158 63.2296 114.91 63.2481H114.287V64.7723Z" fill="#AFB1B8"/>
<path d="M121.201 66.5612H120.795C120.754 66.5626 120.714 66.5505 120.681 66.5268C120.652 66.5038 120.629 66.4744 120.615 66.4411L120.265 65.5466H118.508L118.145 66.4411C118.132 66.4738 118.11 66.5025 118.081 66.5244C118.048 66.5495 118.007 66.5625 117.965 66.5612H117.559L119.102 62.8582H119.637L121.201 66.5612ZM118.655 65.1863H120.105L119.493 63.6791C119.446 63.5658 119.408 63.4495 119.377 63.3311L119.318 63.5247C119.3 63.5836 119.28 63.6375 119.262 63.6816L118.655 65.1863Z" fill="#AFB1B8"/>
<path d="M123.423 62.8754C123.454 62.8915 123.481 62.9141 123.501 62.9416L125.751 65.7329C125.751 65.6887 125.751 65.6446 125.751 65.603C125.751 65.5613 125.751 65.5197 125.751 65.4804V62.8582H126.212V66.5612H125.954C125.918 66.5622 125.882 66.5547 125.849 66.5391C125.817 66.5215 125.789 66.4982 125.767 66.4705L123.519 63.6817C123.521 63.7241 123.521 63.7666 123.519 63.8091C123.519 63.8508 123.519 63.8875 123.519 63.9218V66.5612H123.058V62.8582H123.331C123.363 62.8574 123.394 62.8632 123.423 62.8754Z" fill="#AFB1B8"/>
<path d="M130.003 65.0884V66.5588H129.488V65.0884L128.066 62.8584H128.526C128.566 62.8561 128.605 62.8674 128.637 62.8902C128.665 62.914 128.688 62.9422 128.706 62.9735L129.596 64.4121C129.632 64.4733 129.663 64.5297 129.689 64.5836C129.715 64.6375 129.735 64.689 129.753 64.7405L129.82 64.5812C129.845 64.5229 129.874 64.4664 129.908 64.4121L130.785 62.9637C130.803 62.9348 130.826 62.9084 130.852 62.8853C130.882 62.8599 130.922 62.8467 130.962 62.8486H131.428L130.003 65.0884Z" fill="#AFB1B8"/>
<path d="M109.086 56.6443C109.31 56.6712 109.536 56.6933 109.765 56.7129C113.236 55.2337 116.172 52.8127 118.206 49.7526C120.241 46.6924 121.283 43.1289 121.204 39.5073L117.379 35.8633C118.156 39.7191 117.793 43.705 116.328 47.3751C114.864 51.0452 112.356 54.2546 109.086 56.6443Z" fill="#AFB1B8"/>
<path d="M107.72 56.4748L107.823 56.4944C111.318 54.1132 113.982 50.788 115.471 46.9488C116.96 43.1097 117.207 38.9331 116.178 34.9592L110.73 29.769C112.933 34.0353 113.82 38.8098 113.288 43.5374C112.755 48.265 110.824 52.7514 107.72 56.4748Z" fill="#AFB1B8"/>
<path d="M126.196 43.7861C125.271 47.7654 123.023 51.3541 119.786 54.0196C118.841 54.8023 117.822 55.4996 116.741 56.1025C119.376 55.3646 121.799 54.0598 123.821 52.289C125.843 50.5181 127.412 48.3284 128.406 45.8887L126.196 43.7861Z" fill="#AFB1B8"/>
<path d="M125.329 43.2002L122.183 40.2031C122.123 43.6201 121.104 46.9594 119.231 49.8739C117.358 52.7885 114.699 55.1718 111.532 56.7764H111.548C112.253 56.7761 112.959 56.736 113.659 56.6563C116.619 55.5053 119.234 53.6742 121.27 51.3262C123.306 48.9782 124.701 46.1865 125.329 43.2002Z" fill="#AFB1B8"/>
<path d="M108.176 27.5803L104.423 24C101.068 25.2351 98.1828 27.4064 96.1446 30.2297C94.1065 33.053 93.0105 36.3968 93 39.8234V39.8234C93.0126 43.6097 94.3502 47.2838 96.8012 50.2643C99.2521 53.2448 102.676 55.3614 106.532 56.2791C109.974 52.2838 111.989 47.347 112.285 42.186C112.58 37.025 111.141 31.9086 108.176 27.5803Z" fill="#AFB1B8"/>
<path d="M134 42.649C133.986 38.1568 132.107 33.8522 128.773 30.6757C125.439 27.4992 120.921 25.709 116.206 25.6961C114.027 25.6939 111.867 26.077 109.835 26.8258L132.812 48.7166C133.598 46.7815 134.001 44.7241 134 42.649Z" fill="#AFB1B8"/>
</svg>
