<svg width="226" height="90" viewBox="0 0 226 90" fill="none" xmlns="http://www.w3.org/2000/svg">
<rect x="0.5" y="0.5" width="225" height="89" rx="3.5" stroke="#AFB1B8"/>
<path d="M97 20L104.308 26.918H124.692V46.2158L132 53.1338V20H97Z" fill="#AFB1B8"/>
<path d="M91 26.6265V58.8137H125V46.0195L104.523 26.6344L91 26.6265ZM118.523 54.1055H96.3801V32.4579H97.9453V52.6397H118.523V54.1055Z" fill="#AFB1B8"/>
<path d="M100.791 64.7837L101.609 63.0991H102.292L101.101 65.3452V66.6538H100.481V65.3452L99.2871 63.0991H99.9731L100.791 64.7837ZM104.302 65.8262H102.925L102.637 66.6538H101.995L103.337 63.0991H103.892L105.237 66.6538H104.592L104.302 65.8262ZM103.098 65.3281H104.128L103.613 63.8535L103.098 65.3281ZM106.736 65.6943C106.736 65.5299 106.781 65.3794 106.87 65.2427C106.96 65.1043 107.136 64.9408 107.4 64.752C107.262 64.5778 107.165 64.4297 107.109 64.3076C107.056 64.1855 107.029 64.0675 107.029 63.9536C107.029 63.6753 107.113 63.4556 107.283 63.2944C107.452 63.1317 107.68 63.0503 107.966 63.0503C108.225 63.0503 108.437 63.1268 108.601 63.2798C108.767 63.4312 108.85 63.6191 108.85 63.8438C108.85 63.9919 108.813 64.1286 108.738 64.2539C108.663 64.3776 108.54 64.5013 108.369 64.625L108.127 64.8008L108.813 65.6113C108.913 65.416 108.962 65.1987 108.962 64.9595H109.478C109.478 65.3973 109.375 65.7562 109.17 66.0361L109.692 66.6538H109.004L108.804 66.417C108.55 66.6074 108.247 66.7026 107.896 66.7026C107.544 66.7026 107.262 66.6099 107.051 66.4243C106.841 66.2371 106.736 65.9938 106.736 65.6943ZM107.913 66.229C108.113 66.229 108.3 66.1623 108.474 66.0288L107.698 65.1133L107.622 65.167C107.427 65.3151 107.329 65.4844 107.329 65.6748C107.329 65.8392 107.382 65.9727 107.488 66.0752C107.594 66.1777 107.735 66.229 107.913 66.229ZM107.585 63.939C107.585 64.0757 107.669 64.2474 107.837 64.4541L108.108 64.2686L108.184 64.2075C108.285 64.118 108.335 64.0033 108.335 63.8633C108.335 63.7705 108.3 63.6916 108.23 63.6265C108.16 63.5597 108.071 63.5264 107.964 63.5264C107.848 63.5264 107.756 63.5654 107.688 63.6436C107.62 63.7217 107.585 63.8201 107.585 63.939ZM114.043 65.4966C114.007 65.8758 113.867 66.172 113.623 66.3853C113.379 66.5968 113.054 66.7026 112.649 66.7026C112.366 66.7026 112.116 66.6359 111.899 66.5024C111.685 66.3674 111.519 66.1761 111.401 65.9287C111.284 65.6813 111.223 65.394 111.218 65.0669V64.7349C111.218 64.3996 111.278 64.1042 111.396 63.8486C111.515 63.5931 111.685 63.3962 111.907 63.2578C112.13 63.1195 112.387 63.0503 112.678 63.0503C113.07 63.0503 113.386 63.1569 113.625 63.3701C113.865 63.5833 114.004 63.8844 114.043 64.2734H113.428C113.398 64.0179 113.324 63.834 113.203 63.7217C113.084 63.6077 112.909 63.5508 112.678 63.5508C112.41 63.5508 112.203 63.6493 112.058 63.8462C111.915 64.0415 111.842 64.3288 111.838 64.708V65.0229C111.838 65.4071 111.907 65.7 112.043 65.9019C112.182 66.1037 112.384 66.2046 112.649 66.2046C112.891 66.2046 113.074 66.1501 113.196 66.041C113.318 65.932 113.395 65.7505 113.428 65.4966H114.043ZM117.434 64.9692C117.434 65.3175 117.374 65.6235 117.253 65.8872C117.133 66.1493 116.96 66.3511 116.736 66.4927C116.513 66.6326 116.256 66.7026 115.964 66.7026C115.676 66.7026 115.419 66.6326 115.193 66.4927C114.968 66.3511 114.794 66.1501 114.67 65.8896C114.548 65.6292 114.486 65.3289 114.485 64.9888V64.7886C114.485 64.4419 114.546 64.1359 114.668 63.8706C114.792 63.6053 114.965 63.4027 115.188 63.2627C115.413 63.1211 115.67 63.0503 115.959 63.0503C116.249 63.0503 116.506 63.1203 116.729 63.2603C116.953 63.3986 117.126 63.5988 117.249 63.8608C117.371 64.1213 117.432 64.4248 117.434 64.7715V64.9692ZM116.816 64.7837C116.816 64.3898 116.742 64.0879 116.592 63.8779C116.444 63.668 116.233 63.563 115.959 63.563C115.693 63.563 115.483 63.668 115.332 63.8779C115.182 64.0863 115.106 64.3817 115.103 64.7642V64.9692C115.103 65.3599 115.178 65.6618 115.33 65.875C115.483 66.0882 115.694 66.1948 115.964 66.1948C116.238 66.1948 116.448 66.0907 116.594 65.8823C116.742 65.674 116.816 65.3696 116.816 64.9692V64.7837Z" fill="#AFB1B8"/>
</svg>
